<?xml version="1.0" ?><svg id="Layer_1" style="enable-background:new 0 0 32 32;" version="1.1" viewBox="0 0 32 32" xml:space="preserve" xmlns="http://www.w3.org/2000/svg" xmlns:xlink="http://www.w3.org/1999/xlink"><g><rect height="6.0056949" width="30" x="1" y="1"/><path d="M1,8.4119377V31h23.1838989v-6.3473511H31V8.4119377H1z M12.7105103,20.8042297l-4.2388916,4.3226624   c-0.1766968,0.1799011-0.4174805,0.2810669-0.6692505,0.2810669c-0.0027466,0-0.0054932,0-0.0091553,0   c-0.2545166-0.0022888-0.4971313-0.10849-0.6719971-0.2938843L4.8296509,22.688385   c-0.3561401-0.3762817-0.3387451-0.9695435,0.0375366-1.3252258c0.3771973-0.3556824,0.970459-0.3392029,1.3247681,0.0379944   l1.62323,1.7175293l3.5568237-3.6273193c0.3616333-0.3707886,0.9558105-0.3753662,1.3256836-0.0128174   S13.0730591,20.4343567,12.7105103,20.8042297z M12.7105103,13.2543335l-4.2388916,4.3226624   c-0.1766968,0.1799011-0.4174805,0.2810669-0.6692505,0.2810669c-0.0027466,0-0.0054932,0-0.0091553,0   c-0.2545166-0.0022888-0.4971313-0.10849-0.6719971-0.2938843l-2.2915649-2.4256897   c-0.3561401-0.3762817-0.3387451-0.9695435,0.0375366-1.3252258c0.3771973-0.3556824,0.970459-0.3387451,1.3247681,0.0379944   l1.62323,1.7175293l3.5568237-3.6273193c0.3616333-0.3707886,0.9558105-0.3753662,1.3256836-0.0128174   S13.0730591,12.8844604,12.7105103,13.2543335z M20.3991089,23.5828552H14.309021c-0.5181885,0-0.9375-0.4197693-0.9375-0.9375   s0.4193115-0.9375,0.9375-0.9375h6.0900879c0.5181885,0,0.9375,0.4197693,0.9375,0.9375   S20.9172974,23.5828552,20.3991089,23.5828552z M26.4891968,16.032959H14.309021c-0.5181885,0-0.9375-0.4197693-0.9375-0.9375   s0.4193115-0.9375,0.9375-0.9375h12.1801758c0.5181885,0,0.9375,0.4197693,0.9375,0.9375   S27.0073853,16.032959,26.4891968,16.032959z"/></g></svg>